<svg xmlns="http://www.w3.org/2000/svg" width="1420" height="860" viewBox="0 0 1420 860">
<rect width="1420" height="860" fill="#F7F9FC"/>
<style>text{font-family:Arial,"PingFang SC",sans-serif;fill:#172B41}.small{font-size:12px}.muted{fill:#52657B}.tiny{font-size:9px}</style>
<text x="36" y="32" font-size="24" font-weight="bold">E16 · USB 右侧中部布局方案</text>
<text x="36" y="53" class="muted">来源：E15 保存快照 + 已校验的布局方案；1 mm = 10 px，Y 轴向上为板面正视</text>
<rect x="90.0" y="72.0" width="840.0" height="520.0" fill="none" stroke="#94A3B8" stroke-width="1.5" stroke-dasharray="7 5"/>
<path d="M 90.0 592.0 L 90.0 72.0 L 930.0 72.0 L 930.0 592.0 L 650.0 592.0 L 650.0 527.0 L 520.0 527.0 L 520.0 592.0 Z" fill="none" stroke="#94A3B8" stroke-width="1.6" stroke-dasharray="6 4"/>
<path d="M 90.0 592.0 L 90.0 72.0 L 930.0 72.0 L 930.0 367.0 L 865.0 367.0 L 865.0 497.0 L 930.0 497.0 L 930.0 592.0 Z" fill="#E5EAF0" stroke="#334155" stroke-width="2.4"/>
<rect x="120.0" y="457.0" width="300.0" height="120.0" fill="#64748B" fill-opacity="0.12" stroke="#64748B" stroke-width="1" stroke-dasharray="3 3"/>
<text x="270.0" y="517.0" text-anchor="middle" class="tiny" fill="#64748B">301230 电池 · 30×12</text>
<rect x="110.0" y="103.0" width="374.2" height="319.0" fill="#64748B" fill-opacity="0.12" stroke="#64748B" stroke-width="1" stroke-dasharray="3 3"/>
<text x="297.1" y="262.5" text-anchor="middle" class="tiny" fill="#64748B">SCREEN / FPC</text>
<rect x="690.0" y="92.0" width="220.0" height="260.0" fill="#16806B" fill-opacity="0.12" stroke="#16806B" stroke-width="1" stroke-dasharray="6 4"/>
<text x="800.0" y="222.0" text-anchor="middle" class="tiny" fill="#16806B">NFC RESERVE · 22×26</text>
<rect x="565.0" y="182.0" width="80.0" height="170.0" fill="#64748B" fill-opacity="0.12" stroke="#64748B" stroke-width="1" stroke-dasharray="3 3"/>
<text x="605.0" y="267.0" text-anchor="middle" class="tiny" fill="#64748B">J2 FPC</text>
<rect x="445.0" y="516.0" width="52.0" height="52.0" fill="#64748B" fill-opacity="0.12" stroke="#64748B" stroke-width="1" stroke-dasharray="3 3"/>
<text x="471.0" y="542.0" text-anchor="middle" class="tiny" fill="#64748B">SW1</text>
<rect x="445.0" y="453.0" width="52.0" height="52.0" fill="#64748B" fill-opacity="0.12" stroke="#64748B" stroke-width="1" stroke-dasharray="3 3"/>
<text x="471.0" y="479.0" text-anchor="middle" class="tiny" fill="#64748B">SW2</text>
<rect x="445.0" y="390.0" width="52.0" height="52.0" fill="#64748B" fill-opacity="0.12" stroke="#64748B" stroke-width="1" stroke-dasharray="3 3"/>
<text x="471.0" y="416.0" text-anchor="middle" class="tiny" fill="#64748B">SW3</text>
<rect x="805.0" y="432.0" width="95.0" height="66.0" fill="#64748B" fill-opacity="0.12" stroke="#64748B" stroke-width="1" stroke-dasharray="3 3"/>
<text x="852.5" y="465.0" text-anchor="middle" class="tiny" fill="#64748B">U1 旧位置（E15）</text>
<rect x="690.0" y="92.0" width="220.0" height="260.0" fill="#B8E0D7" fill-opacity="0.35" stroke="#16806B" stroke-width="1.6" stroke-dasharray="6 4"/>
<path d="M 792.5 434.5 L 687.5 434.5 L 687.5 589.5 L 792.5 589.5 Z" fill="#356AA0" fill-opacity="0.20" stroke="#356AA0" stroke-width="2"/>
<rect x="687.5" y="566.5" width="105.0" height="23.0" fill="#E08B4A" fill-opacity="0.30" stroke="#B45309" stroke-width="1.6" stroke-dasharray="5 3"/>
<path d="M 740.0 566.5 V 606.0" stroke="#B45309" stroke-width="1" stroke-dasharray="3 2"/>
<text x="740.0" y="618.0" text-anchor="middle" font-size="11" font-weight="bold" fill="#8A4B08">U1 天线净空（各层不铺地）</text>
<path d="M 919.8 488.2 L 919.8 375.8 L 854.3 375.8 L 854.3 488.2 Z" fill="#C47F67" fill-opacity="0.30" stroke="#A2543C" stroke-width="2"/>
<text x="890.0" y="514.0" text-anchor="middle" font-size="12" font-weight="bold" fill="#8A3B22">J1 USB-C · 插口朝右</text>
<circle cx="849.5" cy="449.5" r="2.1" fill="#A2543C"/>
<circle cx="849.5" cy="444.5" r="2.1" fill="#A2543C"/>
<circle cx="849.5" cy="439.5" r="2.1" fill="#A2543C"/>
<circle cx="849.5" cy="434.5" r="2.1" fill="#A2543C"/>
<circle cx="849.5" cy="429.5" r="2.1" fill="#A2543C"/>
<circle cx="849.5" cy="424.5" r="2.1" fill="#A2543C"/>
<circle cx="849.5" cy="419.5" r="2.1" fill="#A2543C"/>
<circle cx="849.5" cy="414.5" r="2.1" fill="#A2543C"/>
<circle cx="849.5" cy="408.0" r="2.1" fill="#A2543C"/>
<circle cx="849.5" cy="400.0" r="2.1" fill="#A2543C"/>
<circle cx="849.5" cy="456.0" r="2.1" fill="#A2543C"/>
<circle cx="849.5" cy="464.0" r="2.1" fill="#A2543C"/>
<circle cx="901.1" cy="375.8" r="2.1" fill="#A2543C"/>
<circle cx="901.1" cy="488.2" r="2.1" fill="#A2543C"/>
<circle cx="861.1" cy="375.8" r="2.1" fill="#A2543C"/>
<circle cx="861.1" cy="488.2" r="2.1" fill="#A2543C"/>
<rect x="786.0" y="370.0" width="76.0" height="104.0" fill="none" stroke="#1D4ED8" stroke-width="1.4" stroke-dasharray="5 3"/>
<text x="789.0" y="364.0" class="small" font-weight="bold" fill="#1D4ED8">USB ESD / CC / VBUS 群</text>
<path d="M 875.0 497.0 L 974.0 497.0" stroke="#A2543C" stroke-width="1.2" stroke-dasharray="4 3"/>
<path d="M 875.0 367.0 L 974.0 367.0" stroke="#A2543C" stroke-width="1.2" stroke-dasharray="4 3"/>
<text x="892.0" y="400.0" class="tiny" fill="#8A3B22">本体外伸约 4.45 mm</text>
<circle cx="471.0" cy="542.0" r="2.4" fill="#94A3B8"/>
<text x="475.0" y="539.0" class="tiny" fill="#64748B">SW1</text>
<circle cx="875.3" cy="432.0" r="4.0" fill="#1D4ED8" stroke="#FFFFFF" stroke-width="1"/>
<circle cx="585.3" cy="537.4" r="3.0" fill="none" stroke="#94A3B8" stroke-width="1" stroke-dasharray="2 2"/>
<line x1="585.3" y1="537.4" x2="875.3" y2="432.0" stroke="#94A3B8" stroke-width="1" stroke-dasharray="3 3"/>
<text x="881.3" y="427.0" class="tiny" font-weight="bold">J1</text>
<circle cx="809.0" cy="444.5" r="4.0" fill="#1D4ED8" stroke="#FFFFFF" stroke-width="1"/>
<circle cx="610.7" cy="528.5" r="3.0" fill="none" stroke="#94A3B8" stroke-width="1" stroke-dasharray="2 2"/>
<line x1="610.7" y1="528.5" x2="809.0" y2="444.5" stroke="#94A3B8" stroke-width="1" stroke-dasharray="3 3"/>
<circle cx="700.0" cy="420.0" r="4.0" fill="#1D4ED8" stroke="#FFFFFF" stroke-width="1"/>
<circle cx="763.1" cy="503.1" r="3.0" fill="none" stroke="#94A3B8" stroke-width="1" stroke-dasharray="2 2"/>
<line x1="763.1" y1="503.1" x2="700.0" y2="420.0" stroke="#94A3B8" stroke-width="1" stroke-dasharray="3 3"/>
<circle cx="826.0" cy="443.0" r="4.0" fill="#1D4ED8" stroke="#FFFFFF" stroke-width="1"/>
<circle cx="547.2" cy="490.4" r="3.0" fill="none" stroke="#94A3B8" stroke-width="1" stroke-dasharray="2 2"/>
<line x1="547.2" y1="490.4" x2="826.0" y2="443.0" stroke="#94A3B8" stroke-width="1" stroke-dasharray="3 3"/>
<circle cx="809.0" cy="414.5" r="4.0" fill="#1D4ED8" stroke="#FFFFFF" stroke-width="1"/>
<circle cx="610.7" cy="482.8" r="3.0" fill="none" stroke="#94A3B8" stroke-width="1" stroke-dasharray="2 2"/>
<line x1="610.7" y1="482.8" x2="809.0" y2="414.5" stroke="#94A3B8" stroke-width="1" stroke-dasharray="3 3"/>
<circle cx="471.0" cy="479.0" r="2.4" fill="#94A3B8"/>
<text x="475.0" y="476.0" class="tiny" fill="#64748B">SW2</text>
<circle cx="826.0" cy="426.0" r="4.0" fill="#1D4ED8" stroke="#FFFFFF" stroke-width="1"/>
<circle cx="559.9" cy="477.7" r="3.0" fill="none" stroke="#94A3B8" stroke-width="1" stroke-dasharray="2 2"/>
<line x1="559.9" y1="477.7" x2="826.0" y2="426.0" stroke="#94A3B8" stroke-width="1" stroke-dasharray="3 3"/>
<circle cx="740.0" cy="512.0" r="4.0" fill="#1D4ED8" stroke="#FFFFFF" stroke-width="1"/>
<circle cx="852.0" cy="465.0" r="3.0" fill="none" stroke="#94A3B8" stroke-width="1" stroke-dasharray="2 2"/>
<line x1="852.0" y1="465.0" x2="740.0" y2="512.0" stroke="#94A3B8" stroke-width="1" stroke-dasharray="3 3"/>
<text x="746.0" y="507.0" class="tiny" font-weight="bold">U1</text>
<circle cx="623.4" cy="459.9" r="2.4" fill="#94A3B8"/>
<text x="627.4" y="456.9" class="tiny" fill="#64748B">R3</text>
<circle cx="826.0" cy="466.0" r="4.0" fill="#1D4ED8" stroke="#FFFFFF" stroke-width="1"/>
<circle cx="585.3" cy="439.6" r="3.0" fill="none" stroke="#94A3B8" stroke-width="1" stroke-dasharray="2 2"/>
<line x1="585.3" y1="439.6" x2="826.0" y2="466.0" stroke="#94A3B8" stroke-width="1" stroke-dasharray="3 3"/>
<circle cx="724.0" cy="420.0" r="4.0" fill="#1D4ED8" stroke="#FFFFFF" stroke-width="1"/>
<circle cx="763.1" cy="439.6" r="3.0" fill="none" stroke="#94A3B8" stroke-width="1" stroke-dasharray="2 2"/>
<line x1="763.1" y1="439.6" x2="724.0" y2="420.0" stroke="#94A3B8" stroke-width="1" stroke-dasharray="3 3"/>
<circle cx="305.0" cy="427.0" r="2.4" fill="#94A3B8"/>
<text x="309.0" y="424.0" class="tiny" fill="#64748B">R10</text>
<circle cx="623.4" cy="426.9" r="2.4" fill="#94A3B8"/>
<text x="627.4" y="423.9" class="tiny" fill="#64748B">R4</text>
<circle cx="471.0" cy="416.0" r="2.4" fill="#94A3B8"/>
<text x="475.0" y="413.0" class="tiny" fill="#64748B">SW3</text>
<circle cx="420.2" cy="414.2" r="2.4" fill="#94A3B8"/>
<text x="424.2" y="411.2" class="tiny" fill="#64748B">C8</text>
<circle cx="547.2" cy="399.0" r="2.4" fill="#94A3B8"/>
<text x="551.2" y="396.0" class="tiny" fill="#64748B">U2</text>
<circle cx="648.8" cy="399.0" r="2.4" fill="#94A3B8"/>
<text x="652.8" y="396.0" class="tiny" fill="#64748B">U3</text>
<circle cx="305.0" cy="397.0" r="2.4" fill="#94A3B8"/>
<text x="309.0" y="394.0" class="tiny" fill="#64748B">R11</text>
<circle cx="547.2" cy="383.7" r="2.4" fill="#94A3B8"/>
<text x="551.2" y="380.7" class="tiny" fill="#64748B">C2</text>
<circle cx="674.2" cy="376.1" r="2.4" fill="#94A3B8"/>
<text x="678.2" y="373.1" class="tiny" fill="#64748B">R9</text>
<circle cx="748.0" cy="420.0" r="4.0" fill="#1D4ED8" stroke="#FFFFFF" stroke-width="1"/>
<circle cx="763.1" cy="376.1" r="3.0" fill="none" stroke="#94A3B8" stroke-width="1" stroke-dasharray="2 2"/>
<line x1="763.1" y1="376.1" x2="748.0" y2="420.0" stroke="#94A3B8" stroke-width="1" stroke-dasharray="3 3"/>
<circle cx="305.0" cy="367.0" r="2.4" fill="#94A3B8"/>
<text x="309.0" y="364.0" class="tiny" fill="#64748B">R12</text>
<circle cx="809.0" cy="386.0" r="4.0" fill="#1D4ED8" stroke="#FFFFFF" stroke-width="1"/>
<circle cx="585.3" cy="363.4" r="3.0" fill="none" stroke="#94A3B8" stroke-width="1" stroke-dasharray="2 2"/>
<line x1="585.3" y1="363.4" x2="809.0" y2="386.0" stroke="#94A3B8" stroke-width="1" stroke-dasharray="3 3"/>
<circle cx="648.8" cy="363.4" r="2.4" fill="#94A3B8"/>
<text x="652.8" y="360.4" class="tiny" fill="#64748B">C4</text>
<circle cx="350.0" cy="354.0" r="2.4" fill="#94A3B8"/>
<text x="354.0" y="351.0" class="tiny" fill="#64748B">C9</text>
<circle cx="547.2" cy="343.1" r="2.4" fill="#94A3B8"/>
<text x="551.2" y="340.1" class="tiny" fill="#64748B">R5</text>
<circle cx="585.3" cy="343.1" r="2.4" fill="#94A3B8"/>
<text x="589.3" y="340.1" class="tiny" fill="#64748B">R6</text>
<circle cx="623.4" cy="343.1" r="2.4" fill="#94A3B8"/>
<text x="627.4" y="340.1" class="tiny" fill="#64748B">R7</text>
<circle cx="661.5" cy="343.1" r="2.4" fill="#94A3B8"/>
<text x="665.5" y="340.1" class="tiny" fill="#64748B">R8</text>
<circle cx="360.0" cy="332.0" r="2.4" fill="#94A3B8"/>
<text x="364.0" y="329.0" class="tiny" fill="#64748B">U4</text>
<circle cx="395.0" cy="332.0" r="2.4" fill="#94A3B8"/>
<text x="399.0" y="329.0" class="tiny" fill="#64748B">C10</text>
<circle cx="655.0" cy="322.0" r="2.4" fill="#94A3B8"/>
<text x="659.0" y="319.0" class="tiny" fill="#64748B">C14</text>
<circle cx="360.0" cy="312.0" r="2.4" fill="#94A3B8"/>
<text x="364.0" y="309.0" class="tiny" fill="#64748B">R13</text>
<circle cx="410.0" cy="312.0" r="2.4" fill="#94A3B8"/>
<text x="414.0" y="309.0" class="tiny" fill="#64748B">R14</text>
<circle cx="655.0" cy="299.0" r="2.4" fill="#94A3B8"/>
<text x="659.0" y="296.0" class="tiny" fill="#64748B">C15</text>
<circle cx="375.0" cy="282.0" r="2.4" fill="#94A3B8"/>
<text x="379.0" y="279.0" class="tiny" fill="#64748B">L1</text>
<circle cx="410.0" cy="282.0" r="2.4" fill="#94A3B8"/>
<text x="414.0" y="279.0" class="tiny" fill="#64748B">Q1</text>
<circle cx="438.0" cy="282.0" r="2.4" fill="#94A3B8"/>
<text x="442.0" y="279.0" class="tiny" fill="#64748B">R15</text>
<circle cx="605.3" cy="252.0" r="2.4" fill="#94A3B8"/>
<text x="609.3" y="249.0" class="tiny" fill="#64748B">J2</text>
<circle cx="375.0" cy="247.0" r="2.4" fill="#94A3B8"/>
<text x="379.0" y="244.0" class="tiny" fill="#64748B">D1</text>
<circle cx="425.0" cy="247.0" r="2.4" fill="#94A3B8"/>
<text x="429.0" y="244.0" class="tiny" fill="#64748B">C11</text>
<circle cx="655.0" cy="244.0" r="2.4" fill="#94A3B8"/>
<text x="659.0" y="241.0" class="tiny" fill="#64748B">C16</text>
<circle cx="655.0" cy="226.0" r="2.4" fill="#94A3B8"/>
<text x="659.0" y="223.0" class="tiny" fill="#64748B">C17</text>
<circle cx="375.0" cy="217.0" r="2.4" fill="#94A3B8"/>
<text x="379.0" y="214.0" class="tiny" fill="#64748B">C12</text>
<circle cx="430.0" cy="212.0" r="2.4" fill="#94A3B8"/>
<text x="434.0" y="209.0" class="tiny" fill="#64748B">D2</text>
<circle cx="655.0" cy="208.0" r="2.4" fill="#94A3B8"/>
<text x="659.0" y="205.0" class="tiny" fill="#64748B">C18</text>
<circle cx="655.0" cy="190.0" r="2.4" fill="#94A3B8"/>
<text x="659.0" y="187.0" class="tiny" fill="#64748B">C19</text>
<circle cx="375.0" cy="187.0" r="2.4" fill="#94A3B8"/>
<text x="379.0" y="184.0" class="tiny" fill="#64748B">R16</text>
<circle cx="430.0" cy="172.0" r="2.4" fill="#94A3B8"/>
<text x="434.0" y="169.0" class="tiny" fill="#64748B">D3</text>
<circle cx="655.0" cy="172.0" r="2.4" fill="#94A3B8"/>
<text x="659.0" y="169.0" class="tiny" fill="#64748B">C20</text>
<circle cx="655.0" cy="154.0" r="2.4" fill="#94A3B8"/>
<text x="659.0" y="151.0" class="tiny" fill="#64748B">C21</text>
<circle cx="600.0" cy="144.0" r="2.4" fill="#94A3B8"/>
<text x="604.0" y="141.0" class="tiny" fill="#64748B">R17</text>
<circle cx="430.0" cy="142.0" r="2.4" fill="#94A3B8"/>
<text x="434.0" y="139.0" class="tiny" fill="#64748B">C13</text>
<circle cx="655.0" cy="136.0" r="2.4" fill="#94A3B8"/>
<text x="659.0" y="133.0" class="tiny" fill="#64748B">C22</text>
<circle cx="600.0" cy="117.0" r="2.4" fill="#94A3B8"/>
<text x="604.0" y="114.0" class="tiny" fill="#64748B">R18</text>
<path d="M 90.0 587.0 V 592.0" stroke="#64748B"/><text x="90.0" y="582.0" text-anchor="middle" class="tiny">0</text>
<path d="M 190.0 587.0 V 592.0" stroke="#64748B"/><text x="190.0" y="582.0" text-anchor="middle" class="tiny">10</text>
<path d="M 290.0 587.0 V 592.0" stroke="#64748B"/><text x="290.0" y="582.0" text-anchor="middle" class="tiny">20</text>
<path d="M 390.0 587.0 V 592.0" stroke="#64748B"/><text x="390.0" y="582.0" text-anchor="middle" class="tiny">30</text>
<path d="M 490.0 587.0 V 592.0" stroke="#64748B"/><text x="490.0" y="582.0" text-anchor="middle" class="tiny">40</text>
<path d="M 590.0 587.0 V 592.0" stroke="#64748B"/><text x="590.0" y="582.0" text-anchor="middle" class="tiny">50</text>
<path d="M 690.0 587.0 V 592.0" stroke="#64748B"/><text x="690.0" y="582.0" text-anchor="middle" class="tiny">60</text>
<path d="M 790.0 587.0 V 592.0" stroke="#64748B"/><text x="790.0" y="582.0" text-anchor="middle" class="tiny">70</text>
<path d="M 890.0 587.0 V 592.0" stroke="#64748B"/><text x="890.0" y="582.0" text-anchor="middle" class="tiny">80</text>
<path d="M 85.0 592.0 H 90.0" stroke="#64748B"/><text x="80.0" y="595.0" text-anchor="end" class="tiny">0</text>
<path d="M 85.0 492.0 H 90.0" stroke="#64748B"/><text x="80.0" y="495.0" text-anchor="end" class="tiny">10</text>
<path d="M 85.0 392.0 H 90.0" stroke="#64748B"/><text x="80.0" y="395.0" text-anchor="end" class="tiny">20</text>
<path d="M 85.0 292.0 H 90.0" stroke="#64748B"/><text x="80.0" y="295.0" text-anchor="end" class="tiny">30</text>
<path d="M 85.0 192.0 H 90.0" stroke="#64748B"/><text x="80.0" y="195.0" text-anchor="end" class="tiny">40</text>
<path d="M 85.0 92.0 H 90.0" stroke="#64748B"/><text x="80.0" y="95.0" text-anchor="end" class="tiny">50</text>
<text x="90" y="652" class="muted">浅灰虚线 = E15 原 84×52 板框（底边 USB 缺口）；深色实线 = 右侧中部 USB 新板框</text>
<text x="90" y="672" class="muted">蓝色实心 = 本次移动的元件，灰色小圆 = 保留原位；灰色虚圈 = 移动前位置</text>
<text x="982" y="90" font-size="17" font-weight="bold">方案要点</text>
<text x="982" y="116" class="small">USB：右边缘中部，插口朝 +x</text>
<text x="982" y="138" class="small">缺口：13 × 6.5 mm，内缘距连接器原点 1.025 mm</text>
<text x="982" y="160" class="small">U1：下移并转 180°，天线朝下板边</text>
<text x="982" y="182" class="small">天线净空：x 59.75–70.25, y 0.25–2.55 mm</text>
<text x="982" y="204" class="small">USB ESD / CC / VBUS 群集中到 J1 左侧</text>
<text x="982" y="226" class="small">去耦 C5–C7 跟随 U1 电源脚</text>
<text x="982" y="262" font-size="15" font-weight="bold">离线校验</text>
<text x="982" y="288" class="small">新增几何冲突：0</text>
<text x="982" y="310" class="small">沿用项：J2 与 C16/C17 贴近（原布局已有）</text>
<text x="982" y="332" class="small">顺带解决：R1 原来压在底边缺口上</text>
<text x="982" y="354" class="small">连接器前锚脚仍落在缺口内（两版一致）</text>
<text x="982" y="376" class="small">尚未在 EasyEDA 应用：旋转方向与原生 DRC 待确认</text>
<text x="982" y="412" font-size="15" font-weight="bold">移动清单（原 → 新，mm）</text>
<text x="982" y="438" class="small">J1  (49.5, 5.5) → (78.5, 16.0)，转 90°</text>
<text x="982" y="460" class="small">U1  (76.2, 12.7) → (65.0, 8.0)，转 180°</text>
<text x="982" y="482" class="small">C5/C6/C7 → (61.0 / 63.4 / 65.8, 17.2)</text>
<text x="982" y="504" class="small">U5/U6 → (73.6, 16.6) / (73.6, 14.9)</text>
<text x="982" y="526" class="small">R1/R2 → (71.9, 14.75) / (71.9, 17.75)</text>
<text x="982" y="548" class="small">C1/C3 → (73.6, 12.6) / (71.9, 20.6)</text>
<text x="982" y="584" font-size="15" font-weight="bold">下一步</text>
<text x="982" y="610" class="small">1. 重连 EDA 扩展后在 E16 应用本方案</text>
<text x="982" y="632" class="small">2. 原生 DRC 复核锚脚 / 缺口 / 槽边距</text>
<text x="982" y="654" class="small">3. 按 CC → DP/DM → VBUS → GND 布线</text>
<text x="982" y="676" class="small">4. 再同步外壳开孔与外伸包络</text>
<text x="90" y="712" class="muted">E16 right-mid USB plan · review only · not a manufacturing export</text>
</svg>
