<svg xmlns="http://www.w3.org/2000/svg" width="1390" height="1161" viewBox="0 0 1390 1161">
<rect width="1390" height="1161" fill="#F7F9FC"/>
<style>text{font-family:Arial,"PingFang SC",sans-serif;fill:#172B41}.t{font-size:15px;font-weight:bold}.s{font-size:12.5px}.m{fill:#52657B}.xs{font-size:10.5px}</style>
<text x="36" y="40" font-size="24" font-weight="bold">E16 外壳 V5 · 4.5 mm 叠层剖面（纵向放大 5.8×，来源 geometry v5 report）</text>
<text x="36" y="64" class="s m">三张切片：电池袋（y≈8）· 按键列（y=14）· 屏幕/FPC 区（y≈34）；虚线为元件参考包络，不是制造图</text>
<text x="36" y="78.0" class="t">1 · 电池袋切片（y≈8，x 0–33.5 无板，x &gt; 33.5 为 PCB 区）</text>
<rect x="150.0" y="333.8" width="840.0" height="23.2" fill="#8FA9C1" fill-opacity="1.0" stroke="#31506E" stroke-width="1.5"/>
<text x="570.0" y="349.4" text-anchor="middle" class="xs">下壳底板 0.4</text>
<rect x="150.0" y="270.0" width="335.0" height="63.8" fill="#FFFFFF" fill-opacity="1.0" stroke="#94A3B8" stroke-width="1.5"/>
<rect x="175.0" y="333.8" width="0.0" height="0.0" fill="#FFFFFF" fill-opacity="1.0" stroke="#94A3B8" stroke-width="1.5"/>
<rect x="175.0" y="159.8" width="300.0" height="174.0" fill="#E6B96E" fill-opacity="1.0" stroke="#8A5A12" stroke-width="1.5"/>
<text x="325.0" y="250.8" text-anchor="middle" class="xs">301230 电芯 3.0（标称）</text>
<rect x="160.0" y="125.0" width="320.0" height="23.2" fill="#8FA9C1" fill-opacity="1.0" stroke="#31506E" stroke-width="1.5"/>
<text x="320.0" y="140.6" text-anchor="middle" class="xs">电池袋加强筋 0.4</text>
<rect x="150.0" y="96.0" width="840.0" height="29.0" fill="#8FA9C1" fill-opacity="1.0" stroke="#31506E" stroke-width="1.5" stroke-dasharray="4 3"/>
<text x="570.0" y="114.5" text-anchor="middle" class="xs">上盖 0.5</text>
<rect x="485.0" y="270.0" width="505.0" height="46.4" fill="#9BB8AA" fill-opacity="1.0" stroke="#2F6B57" stroke-width="1.5"/>
<text x="737.5" y="297.2" text-anchor="middle" class="xs">PCB 0.8</text>
<line x1="590.0" y1="159.8" x2="590.0" y2="125.0" stroke="#94A3B8" stroke-width="1.2"/>
<text x="598.0" y="146.4" text-anchor="start" class="xs m">电芯顶到上盖内表面 0.6 mm</text>
<line x1="138.0" y1="357.0" x2="138.0" y2="333.8" stroke="#94A3B8" stroke-width="1.2"/>
<text x="130.0" y="349.4" text-anchor="end" class="xs m">0.4</text>
<line x1="138.0" y1="125.0" x2="138.0" y2="96.0" stroke="#94A3B8" stroke-width="1.2"/>
<text x="130.0" y="114.5" text-anchor="end" class="xs m">0.5</text>
<text x="36" y="435.0" class="t">2 · 按键列切片（y=14，SW3 + 齐平键帽）</text>
<rect x="150.0" y="690.8" width="840.0" height="23.2" fill="#8FA9C1" fill-opacity="1.0" stroke="#31506E" stroke-width="1.5"/>
<text x="570.0" y="706.4" text-anchor="middle" class="xs">下壳底板 0.4</text>
<rect x="485.0" y="627.0" width="505.0" height="46.4" fill="#9BB8AA" fill-opacity="1.0" stroke="#2F6B57" stroke-width="1.5"/>
<text x="737.5" y="654.2" text-anchor="middle" class="xs">PCB 0.8</text>
<rect x="505.0" y="540.0" width="52.0" height="87.0" fill="#A855F7" fill-opacity="1.0" stroke="#6B21A8" stroke-width="1.5"/>
<text x="531.0" y="587.5" text-anchor="middle" class="xs">SW3 本体 1.5</text>
<rect x="519.0" y="537.1" width="24.0" height="2.9" fill="#FFFFFF" fill-opacity="1.0" stroke="#94A3B8" stroke-width="1.5"/>
<rect x="510.0" y="482.0" width="42.0" height="29.0" fill="#F0C7A0" fill-opacity="1.0" stroke="#B45309" stroke-width="1.5"/>
<rect x="519.0" y="482.0" width="24.0" height="55.1" fill="#F0C7A0" fill-opacity="1.0" stroke="#B45309" stroke-width="1.5"/>
<rect x="150.0" y="453.0" width="360.0" height="29.0" fill="#8FA9C1" fill-opacity="1.0" stroke="#31506E" stroke-width="1.5"/>
<rect x="552.0" y="453.0" width="438.0" height="29.0" fill="#8FA9C1" fill-opacity="1.0" stroke="#31506E" stroke-width="1.5"/>
<text x="771.0" y="471.5" text-anchor="middle" class="xs">上盖 0.5</text>
<rect x="510.0" y="453.0" width="42.0" height="29.0" fill="#FFFFFF" fill-opacity="1.0" stroke="#94A3B8" stroke-width="1.5" stroke-dasharray="3 2"/>
<text x="350.0" y="471.5" class="xs m">上盖在 Ø4.6 键孔处断开</text>
<text x="570.0" y="471.5" class="xs" fill="#B45309">键帽 Ø4.2 × 0.5 骑在孔里</text>
<line x1="531.0" y1="540.0" x2="750.0" y2="540.0" stroke="#B45309" stroke-width="1" stroke-dasharray="3 2"/>
<text x="760.0" y="544.0" class="xs" fill="#B45309">按键顶面 z=3.0，距上盖内表面 1.0 mm——由键帽补上</text>
<line x1="450.0" y1="540.0" x2="450.0" y2="537.1" stroke="#94A3B8" stroke-width="1.2"/>
<text x="458.0" y="542.5" text-anchor="start" class="xs m">0.05 间隙</text>
<line x1="450.0" y1="537.1" x2="450.0" y2="482.0" stroke="#94A3B8" stroke-width="1.2"/>
<text x="458.0" y="513.5" text-anchor="start" class="xs m">0.95 键帽柱</text>
<text x="650.0" y="512.1" class="xs m">键帽顶面与上盖齐平 z=4.5，按下走完 0.25 mm 行程</text>
<text x="36" y="792.0" class="t">3 · 屏幕 / FPC 切片（y≈34，最高元件与屏背间隙）</text>
<rect x="150.0" y="1047.8" width="840.0" height="23.2" fill="#8FA9C1" fill-opacity="1.0" stroke="#31506E" stroke-width="1.5"/>
<text x="570.0" y="1063.4" text-anchor="middle" class="xs">下壳底板 0.4</text>
<rect x="150.0" y="984.0" width="840.0" height="46.4" fill="#9BB8AA" fill-opacity="1.0" stroke="#2F6B57" stroke-width="1.5"/>
<text x="570.0" y="1011.2" text-anchor="middle" class="xs">PCB 0.8（y=34 处整幅连续）</text>
<rect x="430.0" y="896.4" width="30.0" height="87.6" fill="#A855F7" fill-opacity="1.0" stroke="#6B21A8" stroke-width="1.5"/>
<text x="445.0" y="944.2" text-anchor="middle" class="xs">最高元件 1.51</text>
<rect x="170.0" y="844.8" width="373.2" height="49.3" fill="#C5D5E5" fill-opacity="1.0" stroke="#31506E" stroke-width="1.5"/>
<text x="356.6" y="873.5" text-anchor="middle" class="xs">GDEH0154E01 屏 0.85</text>
<rect x="190.0" y="810.0" width="278.0" height="29.0" fill="#FFFFFF" fill-opacity="1.0" stroke="#94A3B8" stroke-width="1.5"/>
<text x="329.0" y="828.5" text-anchor="middle" class="xs">屏窗 27.8</text>
<rect x="150.0" y="810.0" width="840.0" height="29.0" fill="#8FA9C1" fill-opacity="1.0" stroke="#31506E" stroke-width="1.5"/>
<text x="570.0" y="828.5" text-anchor="middle" class="xs">上盖 0.5</text>
<rect x="170.0" y="894.1" width="0.0" height="0.0" fill="#FFFFFF" fill-opacity="1.0" stroke="#94A3B8" stroke-width="1.5"/>
<line x1="160.0" y1="894.1" x2="160.0" y2="868.0" stroke="#94A3B8" stroke-width="1.2"/>
<text x="152.0" y="885.0" text-anchor="end" class="xs m">屏背 1.5 mm 泡棉（压缩）</text>
<line x1="610.0" y1="984.0" x2="610.0" y2="894.1" stroke="#94A3B8" stroke-width="1.2"/>
<text x="618.0" y="943.0" text-anchor="start" class="xs m">元件 1.51 → 屏背 0.04</text>
<text x="770.0" y="877.8" class="xs m">FPC 从屏东缘 x=39.32 下到 J2 x≈48.0，通道内最高件 z=1.95</text>
<text x="1030" y="106" class="t">图例</text>
<rect x="1030" y="128" width="18" height="14" fill="#8FA9C1" stroke="#31506E"/>
<text x="1056" y="140" class="s">打印壳 / 加强筋</text>
<rect x="1030" y="154" width="18" height="14" fill="#9BB8AA" stroke="#2F6B57"/>
<text x="1056" y="166" class="s">PCB 0.8（GCT 要求）</text>
<rect x="1030" y="180" width="18" height="14" fill="#E6B96E" stroke="#8A5A12"/>
<text x="1056" y="192" class="s">301230 电芯 3.0</text>
<rect x="1030" y="206" width="18" height="14" fill="#A855F7" stroke="#6B21A8"/>
<text x="1056" y="218" class="s">元件参考高度</text>
<rect x="1030" y="232" width="18" height="14" fill="#C5D5E5" stroke="#31506E"/>
<text x="1056" y="244" class="s">屏模块</text>
<rect x="1030" y="258" width="18" height="14" fill="#F0C7A0" stroke="#B45309"/>
<text x="1056" y="270" class="s">齐平键帽</text>
<rect x="1030" y="284" width="18" height="14" fill="#FFFFFF" stroke="#94A3B8"/>
<text x="1056" y="296" class="s">空气 / 间隙</text>
<text x="1030" y="356" class="xs m"></text>
<text x="1030" y="378" class="xs m">总高 4.5 = 0.4 底板 + 0.3 板下间隙 + 0.8 PCB + 2.5 顶腔 + 0.5 上盖</text>
<text x="1030" y="400" class="xs m">电池袋：底板 201 mm³、上盖 251.25 mm³ 体积回归通过</text>
<text x="1030" y="422" class="xs m">真实元件干涉：0（J1 顶面 3.87，余量 0.13 mm）</text>
<text x="1030" y="444" class="xs m">键帽：Ø4.2 骑 Ø4.6 孔，行程 0.25 mm 不越程</text>
<text x="1030" y="466" class="xs m">打印：JLC 8001 树脂推荐壁厚 >0.8，本设计 0.4/0.5</text>
<text x="1030" y="488" class="xs m">→ 需要能稳定做薄壁的工艺，或改薄片前盖路线</text>
</svg>
